# xmcd
#
# Track frame offsets:
#	150
#	14901
#	29007
#	42655
#	58903
#	61254
#	77332
#	85842
#	103465
#	114688
#	130278
#	144506
#	159028
#	172712
#	188891
#	206396
#
# Disc length: 3127 seconds
#
# Revision: 1
# Processed by: cddbd v1.5.2PL0 Copyright (c) Steve Scherf et al.
# Submitted via: audiograbber 1.83.01
#
DISCID=de0c3510
DTITLE=Jerry Hanlon - Christmas Wishes
DYEAR=1999
DGENRE=
TTITLE0=Christmas Wishes
TTITLE1=Not The Place Where The Kng Are Born
TTITLE2=What A Night This Is
TTITLE3=The Greatest Gift Of All
TTITLE4=Introduction To Silent Night
TTITLE5=Silent Night
TTITLE6=Adeste Fidelis
TTITLE7=Walking Talking Dolly
TTITLE8=Away In A Manger
TTITLE9=Christmas Eve, All The Animal Talk
TTITLE10=Oh, Holy Night
TTITLE11=Silver Bells
TTITLE12=What Child Is This
TTITLE13=A Child Shall Lead The Way
TTITLE14=It Came Upon The Midnight Clear
TTITLE15=The Christmas Guest
EXTD=
EXTT0=
EXTT1=
EXTT2=
EXTT3=
EXTT4=
EXTT5=
EXTT6=
EXTT7=
EXTT8=
EXTT9=
EXTT10=
EXTT11=
EXTT12=
EXTT13=
EXTT14=
EXTT15=
PLAYORDER=
